<?xml version="1.0" encoding="UTF-8" standalone="no"?>
<!-- Created with Inkscape (http://www.inkscape.org/) -->

<svg
   xmlns:dc="http://purl.org/dc/elements/1.1/"
   xmlns:cc="http://creativecommons.org/ns#"
   xmlns:rdf="http://www.w3.org/1999/02/22-rdf-syntax-ns#"
   xmlns:svg="http://www.w3.org/2000/svg"
   xmlns="http://www.w3.org/2000/svg"
   xmlns:sodipodi="http://sodipodi.sourceforge.net/DTD/sodipodi-0.dtd"
   xmlns:inkscape="http://www.inkscape.org/namespaces/inkscape"
   width="4322.8345"
   height="2161.4172"
   id="svg2"
   version="1.1"
   inkscape:version="0.48.4 r9939"
   sodipodi:docname="faceplate.svg">
  <defs
     id="defs4" />
  <sodipodi:namedview
     id="base"
     pagecolor="#ffffff"
     bordercolor="#666666"
     borderopacity="1.0"
     inkscape:pageopacity="0.0"
     inkscape:pageshadow="2"
     inkscape:zoom="1.1002041"
     inkscape:cx="333.79656"
     inkscape:cy="1640.2529"
     inkscape:document-units="mm"
     inkscape:current-layer="layer1"
     showgrid="false"
     units="mm"
     inkscape:window-width="1918"
     inkscape:window-height="1055"
     inkscape:window-x="1920"
     inkscape:window-y="0"
     inkscape:window-maximized="1" />
  <metadata
     id="metadata7">
    <rdf:RDF>
      <cc:Work
         rdf:about="">
        <dc:format>image/svg+xml</dc:format>
        <dc:type
           rdf:resource="http://purl.org/dc/dcmitype/StillImage" />
        <dc:title />
      </cc:Work>
    </rdf:RDF>
  </metadata>
  <g
     inkscape:label="Layer 1"
     inkscape:groupmode="layer"
     id="layer1"
     transform="translate(0,1109.0551)">
    <path
       style="fill:none;stroke:#000000;stroke-width:0.99874997;stroke-miterlimit:4;stroke-opacity:1;stroke-dasharray:none"
       d="m 731.78681,-842.13133 c 1.7834,-0.53401 4.033,-2.51018 4.8146,-4.22955 0.5906,-1.29923 0.6348,-2.64264 0.6348,-19.30114 0,-16.6584 -0.044,-18.00181 -0.6348,-19.30104 -0.7816,-1.7194 -3.0312,-3.6956 -4.8146,-4.2296 -1.8751,-0.5614 -34.7478,-0.5614 -36.6229,0 -1.7834,0.534 -4.0331,2.5102 -4.8146,4.2296 -0.5906,1.29923 -0.6348,2.64264 -0.6348,19.30104 0,16.71768 0.042,17.99811 0.6407,19.31423 0.7275,1.60072 2.8434,3.52381 4.5601,4.14458 1.6132,0.58339 34.946,0.64827 36.8715,0.072 z"
       id="path3130"
       inkscape:connector-curvature="0" />
    <path
       style="fill:none;stroke:#000000;stroke-width:0.99874997;stroke-miterlimit:4;stroke-opacity:1;stroke-dasharray:none"
       d="m 663.90471,-842.13133 c 1.7284,-0.51741 3.9078,-2.39562 4.8734,-4.19966 0.7601,-1.42018 0.7634,-1.50455 0.7634,-19.33103 0,-17.69862 -0.01,-17.92044 -0.7451,-19.28184 -0.4098,-0.7575 -1.2632,-1.8743 -1.8965,-2.4817 -2.2447,-2.1531 -2.3769,-2.1666 -21.2238,-2.1666 -11.95,0 -17.4593,0.1196 -18.3943,0.3995 -1.7873,0.5352 -3.8637,2.367 -4.745,4.1862 -0.7011,1.4473 -0.7195,1.93892 -0.7195,19.29206 0,14.16172 0.095,18.0338 0.4647,18.91498 0.7532,1.79624 2.3157,3.38846 4.173,4.25274 l 1.737,0.8082 17.189,0 c 12.0572,0 17.5875,-0.11595 18.5237,-0.39625 z"
       id="path3128"
       inkscape:connector-curvature="0" />
    <path
       style="fill:none;stroke:#000000;stroke-width:0.99874997;stroke-miterlimit:4;stroke-opacity:1;stroke-dasharray:none"
       d="m 596.41701,-842.27638 c 0.8978,-0.30569 2.2089,-1.15348 2.9884,-1.93239 2.3979,-2.39612 2.4263,-2.64703 2.4263,-21.45325 0,-18.54401 -0.051,-19.02584 -2.2524,-21.29094 -2.519,-2.5918 -1.3925,-2.4559 -21.26,-2.565 -17.652,-0.097 -17.8438,-0.091 -19.5698,0.6514 -2.0199,0.8683 -3.8406,2.8212 -4.4143,4.73471 -0.281,0.93725 -0.3977,6.49192 -0.3924,18.68196 0.01,16.71738 0.033,17.40452 0.7106,18.89768 1.0931,2.40941 2.5974,3.72663 5.1375,4.49875 0.475,0.14435 8.5503,0.2758 17.9451,0.29209 14.7255,0.026 17.302,-0.046 18.681,-0.51501 z"
       id="path3126"
       inkscape:connector-curvature="0" />
    <path
       style="fill:none;stroke:#000000;stroke-width:0.99874997;stroke-miterlimit:4;stroke-opacity:1;stroke-dasharray:none"
       d="m 530.00541,-842.94603 c 1.0448,-0.64557 2.083,-1.68319 2.7291,-2.7275 l 1.0429,-1.68549 0,-18.303 0,-18.3029 -1.0429,-1.68544 c -0.6463,-1.0447 -1.6842,-2.0818 -2.7295,-2.7276 l -1.6866,-1.0422 -18.3167,0 -18.3168,0 -1.6868,1.0422 c -1.0454,0.6458 -2.0835,1.6829 -2.7298,2.7272 l -1.0428,1.68514 -0.095,17.90995 -0.095,17.90994 0.8973,1.83253 c 0.4935,1.00793 1.4276,2.23688 2.0758,2.7309 2.4186,1.84332 2.3615,1.83863 21.5376,1.75546 l 17.7733,-0.077 1.6863,-1.04202 z"
       id="path3124"
       inkscape:connector-curvature="0" />
    <path
       style="fill:none;stroke:#000000;stroke-width:0.99874997;stroke-miterlimit:4;stroke-opacity:1;stroke-dasharray:none"
       d="m 462.12331,-842.94603 c 1.0445,-0.64537 2.0833,-1.68339 2.7292,-2.7271 l 1.0428,-1.68519 0.095,-17.88135 0.095,-17.88125 -0.8405,-1.83454 c -0.92,-2.0081 -2.8729,-3.6919 -5.0049,-4.3153 -0.8143,-0.2383 -7.2455,-0.3253 -18.8376,-0.2554 l -17.601,0.106 -1.6863,1.0422 c -1.0446,0.6455 -2.0831,1.6833 -2.7291,2.7275 l -1.0429,1.68534 0,18.10388 0,18.10387 0.8106,1.6449 c 0.4458,0.90466 1.3371,2.04615 1.9806,2.53667 2.4089,1.83593 2.3625,1.83213 21.5291,1.74896 l 17.7734,-0.077 1.6863,-1.04202 z"
       id="path3122"
       inkscape:connector-curvature="0" />
    <path
       style="fill:none;stroke:#000000;stroke-width:0.99874997;stroke-miterlimit:4;stroke-opacity:1;stroke-dasharray:none"
       d="m 393.93111,-842.66863 c 1.7572,-0.93896 3.3376,-2.79958 3.8611,-4.54544 0.5558,-1.85382 0.5499,-35.06176 -0.01,-36.91778 -0.5737,-1.91351 -2.3945,-3.86641 -4.4143,-4.73471 -1.726,-0.7419 -1.9178,-0.7483 -19.5699,-0.6514 -19.8675,0.1091 -18.7409,-0.027 -21.2599,2.565 -2.2002,2.2637 -2.2525,2.75593 -2.2525,21.20098 0,11.08754 0.1272,16.98918 0.3884,18.0257 0.5139,2.03965 2.9348,4.73646 4.8752,5.43121 1.238,0.44324 4.1106,0.51141 19.2015,0.45613 17.6141,-0.065 17.7565,-0.071 19.177,-0.82969 z"
       id="path3120"
       inkscape:connector-curvature="0" />
    <path
       style="fill:none;stroke:#000000;stroke-width:0.99874997;stroke-miterlimit:4;stroke-opacity:1;stroke-dasharray:none"
       d="m 325.66571,-842.54668 c 1.8574,-0.86428 3.4198,-2.4565 4.1731,-4.25274 0.3699,-0.88208 0.4631,-4.74347 0.4571,-18.93757 -0.01,-16.57613 -0.052,-17.92774 -0.6424,-19.22607 -0.7815,-1.7194 -3.0311,-3.6956 -4.8145,-4.2296 -0.935,-0.2799 -6.4443,-0.3995 -18.3943,-0.3995 -18.8469,0 -18.9792,0.014 -21.2239,2.1666 -0.6332,0.6074 -1.4866,1.7242 -1.8964,2.4817 -0.7366,1.3614 -0.7451,1.58322 -0.7451,19.28184 0,17.87366 0,17.90715 0.7702,19.34432 0.8961,1.67499 2.962,3.51571 4.618,4.11449 0.8493,0.30719 5.8057,0.42515 18.56,0.44194 l 17.4012,0.023 1.737,-0.8083 z"
       id="path3118"
       inkscape:connector-curvature="0" />
    <path
       style="fill:none;stroke:#000000;stroke-width:0.99874997;stroke-miterlimit:4;stroke-opacity:1;stroke-dasharray:none"
       d="m 256.97471,-842.13673 c 1.9427,-0.58159 4.2389,-2.7352 4.9899,-4.68009 0.5795,-1.50085 0.6291,-3.01249 0.6291,-19.18947 0,-17.4709 0,-17.56757 -0.7634,-18.98667 -0.9656,-1.8041 -3.1451,-3.6822 -4.8734,-4.1997 -1.8751,-0.5614 -34.7478,-0.5614 -36.6229,0 -1.7834,0.534 -4.0331,2.5102 -4.8146,4.2296 -0.5902,1.29833 -0.6353,2.64994 -0.6423,19.22607 -0.01,19.45008 -0.029,19.22626 1.992,21.38027 0.5111,0.5448 1.7046,1.35671 2.6522,1.80434 l 1.7229,0.8139 17.189,0 c 12.1869,0 17.5825,-0.11445 18.5415,-0.40155 z"
       id="path3116"
       inkscape:connector-curvature="0" />
    <path
       style="fill:none;stroke:#000000;stroke-width:0.99874997;stroke-miterlimit:4;stroke-opacity:1;stroke-dasharray:none"
       d="m 732.94401,-774.81619 c 0.7581,-0.40875 1.7966,-1.18346 2.3077,-1.72157 2.0182,-2.12482 1.9996,-1.92699 1.9996,-21.2933 0,-19.56724 0.043,-19.14419 -2.1711,-21.47594 -2.3759,-2.50228 -1.8119,-2.43821 -21.5298,-2.4467 -19.4792,-0.01 -19.0746,-0.049 -21.383,2.16191 -2.5702,2.4618 -2.468,1.56832 -2.468,21.58599 0,15.43035 0.075,18.10777 0.5351,19.20947 0.8972,2.14611 2.8218,3.80281 5.3205,4.57992 0.475,0.14765 8.7718,0.24042 18.4372,0.20603 17.2882,-0.062 17.5959,-0.075 18.9518,-0.80581 z"
       id="path3114"
       inkscape:connector-curvature="0" />
    <path
       style="fill:none;stroke:#000000;stroke-width:0.99874997;stroke-miterlimit:4;stroke-opacity:1;stroke-dasharray:none"
       d="m 665.06201,-774.81619 c 1.6128,-0.86958 2.9381,-2.21838 3.8372,-3.90507 0.603,-1.13138 0.6423,-2.30055 0.6423,-19.1098 0,-16.89002 -0.037,-17.97912 -0.6538,-19.22006 -0.863,-1.73647 -2.4537,-3.2901 -4.1626,-4.06582 -1.2832,-0.58248 -2.6772,-0.62956 -18.7873,-0.63476 -11.228,0 -17.8682,0.12395 -18.7178,0.35967 -1.6819,0.46662 -3.9526,2.50798 -4.7598,4.27913 -0.5813,1.27523 -0.6283,2.70541 -0.6353,19.31383 l -0.01,17.93653 0.7887,1.49046 c 0.4339,0.8197 1.3452,1.94038 2.0253,2.49038 2.4491,1.98078 2.3263,1.96998 21.4788,1.88591 17.2741,-0.076 17.5971,-0.09 18.9519,-0.8204 z"
       id="path3112"
       inkscape:connector-curvature="0" />
    <path
       style="fill:none;stroke:#000000;stroke-width:0.99874997;stroke-miterlimit:4;stroke-opacity:1;stroke-dasharray:none"
       d="m 595.80121,-774.28098 c 1.8477,-0.46493 4.0708,-2.30586 5.0948,-4.21906 0.7537,-1.40808 0.7649,-1.6422 0.8734,-18.298 0.076,-11.59695 -0.011,-17.42892 -0.2775,-18.65397 -0.5314,-2.4449 -1.9671,-4.30212 -4.1758,-5.40192 l -1.8221,-0.90727 -17.3797,0 c -12.6907,0 -17.7625,0.11356 -18.7981,0.42085 -1.8573,0.55109 -4.512,3.18003 -5.0058,4.95718 -0.2427,0.87348 -0.372,7.3738 -0.3732,18.77103 l 0,17.43492 0.9625,1.84112 c 1.0479,2.00437 3.0197,3.63777 4.9378,4.0903 1.8666,0.44034 34.2013,0.40876 35.9656,-0.035 z"
       id="path3110"
       inkscape:connector-curvature="0" />
    <path
       style="fill:none;stroke:#000000;stroke-width:0.99874997;stroke-miterlimit:4;stroke-opacity:1;stroke-dasharray:none"
       d="m 528.33521,-774.41913 c 1.1425,-0.33908 2.2272,-0.99844 3.1356,-1.9061 2.4873,-2.48549 2.4808,-2.42792 2.4637,-21.65318 -0.012,-13.35611 -0.1154,-17.34954 -0.4765,-18.36047 -0.7357,-2.06015 -2.2132,-3.70815 -4.1198,-4.59522 l -1.7632,-0.8204 -17.3613,0 c -12.188,0 -17.759,0.11566 -18.6961,0.39625 -1.9149,0.57329 -3.8692,2.39263 -4.7382,4.41099 -0.7425,1.72467 -0.7489,1.9164 -0.6519,19.55514 l 0.098,17.81348 0.949,1.61301 c 1.087,1.84772 2.4554,2.93242 4.5091,3.57419 2.2583,0.70574 34.263,0.68455 36.6517,-0.024 z"
       id="path3108"
       inkscape:connector-curvature="0" />
    <path
       style="fill:none;stroke:#000000;stroke-width:0.99874997;stroke-miterlimit:4;stroke-opacity:1;stroke-dasharray:none"
       d="m 460.34281,-774.38814 c 2.27,-0.68265 3.7822,-1.95019 4.8277,-4.04672 l 0.8971,-1.79884 0,-17.57877 0,-17.57876 -0.8136,-1.74596 c -0.9326,-2.00117 -2.7634,-3.66126 -4.6661,-4.23095 -0.909,-0.2721 -6.6531,-0.39196 -18.6741,-0.38966 l -17.3613,0 -1.7632,0.8204 c -1.9066,0.88707 -3.3841,2.53507 -4.1198,4.59522 -0.361,1.01093 -0.4647,5.00436 -0.4765,18.36047 -0.018,19.63712 -0.066,19.25146 2.7714,21.80102 0.9299,0.8355 2.2727,1.67349 2.9841,1.86222 0.7652,0.20313 8.1289,0.35777 18.0367,0.37886 13.5259,0.029 17.0549,-0.058 18.3644,-0.45193 z"
       id="path3106"
       inkscape:connector-curvature="0" />
    <path
       style="fill:none;stroke:#000000;stroke-width:0.99874997;stroke-miterlimit:4;stroke-opacity:1;stroke-dasharray:none"
       d="m 392.13001,-774.2307 c 2.1482,-0.49782 4.0449,-2.02916 5.1079,-4.12399 l 0.9476,-1.86722 0,-17.7342 c 0,-17.27938 -0.018,-17.7723 -0.7194,-19.21927 -0.8814,-1.81923 -2.9577,-3.65106 -4.745,-4.18617 -0.9365,-0.28029 -6.5216,-0.39955 -18.7146,-0.39955 l -17.3797,0 -1.8221,0.90727 c -2.2087,1.0998 -3.6444,2.95712 -4.1759,5.40202 -0.2663,1.22505 -0.353,7.05692 -0.2774,18.65387 0.1021,15.67866 0.1553,16.95689 0.7523,18.07678 1.2066,2.26367 3.0223,3.78042 5.3855,4.49876 1.2354,0.37546 34.0177,0.36786 35.6408,-0.01 z"
       id="path3104"
       inkscape:connector-curvature="0" />
    <path
       style="fill:none;stroke:#000000;stroke-width:0.99874997;stroke-miterlimit:4;stroke-opacity:1;stroke-dasharray:none"
       d="m 326.03901,-774.83248 c 1.6074,-0.85919 3.1128,-2.49779 3.7998,-4.13589 0.3699,-0.88207 0.4631,-4.74346 0.4571,-18.93756 -0.01,-16.50496 -0.054,-17.93194 -0.6353,-19.20687 -0.8072,-1.77115 -3.0779,-3.81251 -4.7599,-4.27913 -0.8495,-0.23572 -7.4897,-0.36337 -18.7178,-0.35967 -16.17,0.01 -17.4987,0.05 -18.7795,0.63996 -1.7989,0.828 -3.0271,2.01027 -4.0196,3.86929 l -0.8045,1.50684 0,17.90465 c 0,16.80915 0.039,17.97832 0.6423,19.1097 1.2047,2.26018 3.0021,3.76363 5.3856,4.50485 0.475,0.14765 8.7717,0.24042 18.4372,0.20603 17.4027,-0.062 17.5873,-0.07 18.9946,-0.8222 z"
       id="path3102"
       inkscape:connector-curvature="0" />
    <path
       style="fill:none;stroke:#000000;stroke-width:0.99874997;stroke-miterlimit:4;stroke-opacity:1;stroke-dasharray:none"
       d="m 258.14681,-774.82248 c 1.7653,-0.94396 3.371,-2.7462 3.9797,-4.46687 0.3698,-1.04552 0.4672,-4.98058 0.4672,-18.88109 0,-17.30916 -0.011,-17.58006 -0.7407,-18.94206 -0.9858,-1.83923 -2.4035,-3.22682 -4.0834,-3.99684 -1.2803,-0.58688 -2.641,-0.63187 -19.1242,-0.63187 -16.4328,0 -17.8477,0.046 -19.1241,0.62727 -1.7593,0.80061 -3.8121,3.06978 -4.3055,4.75926 -0.2659,0.91057 -0.3513,6.81361 -0.2787,19.27394 l 0.1047,17.96133 1.0337,1.46026 c 0.5686,0.80321 1.4304,1.75406 1.9151,2.11313 2.1745,1.61061 2.533,1.637 21.1717,1.55513 17.352,-0.076 17.5913,-0.087 18.9845,-0.83159 z"
       id="path3100"
       inkscape:connector-curvature="0" />
    <path
       style="fill:none;stroke:#000000;stroke-width:0.99874997;stroke-miterlimit:4;stroke-opacity:1;stroke-dasharray:none"
       d="m 731.58931,-706.57153 c 2.1612,-0.64428 4.0226,-2.18024 4.9419,-4.07786 0.7023,-1.44981 0.7201,-1.93134 0.7201,-19.55578 l 0,-18.06938 -1.1199,-1.86357 c -0.8639,-1.43751 -1.5425,-2.08347 -2.9683,-2.82541 l -1.8484,-0.9618 -17.8394,0 -17.8394,0 -1.8484,0.96182 c -1.4258,0.74194 -2.1044,1.38788 -2.9682,2.82541 l -1.1199,1.86357 0,18.06936 c 0,17.62446 0.018,18.10599 0.7201,19.55579 0.8942,1.84582 2.7602,3.42463 4.7932,4.05538 2.3436,0.72717 33.9474,0.74669 36.3766,0.0225 z"
       id="path3098"
       inkscape:connector-curvature="0" />
    <path
       style="fill:none;stroke:#000000;stroke-width:0.99874997;stroke-miterlimit:4;stroke-opacity:1;stroke-dasharray:none"
       d="m 665.09461,-706.99154 c 0.776,-0.41493 1.8936,-1.30368 2.4834,-1.97498 2.0587,-2.34301 2.1358,-3.09703 2.1358,-20.90202 0,-10.15692 -0.1364,-16.73913 -0.3694,-17.82468 -0.511,-2.38082 -1.953,-4.23269 -4.1462,-5.32485 l -1.8221,-0.90726 -17.6893,0 c -19.4952,0 -19.0807,-0.042 -21.4134,2.16943 -2.5056,2.37541 -2.4405,1.80071 -2.4452,21.5886 l 0,17.73245 0.8211,1.7619 c 0.4547,0.97588 1.3712,2.18126 2.0544,2.70194 2.437,1.85745 2.72,1.88111 21.5829,1.80455 17.1809,-0.0698 17.4192,-0.0802 18.8122,-0.82506 z"
       id="path3096"
       inkscape:connector-curvature="0" />
    <path
       style="fill:none;stroke:#000000;stroke-width:0.99874997;stroke-miterlimit:4;stroke-opacity:1;stroke-dasharray:none"
       d="m 597.17991,-706.98024 c 1.6128,-0.86961 2.9381,-2.21841 3.8372,-3.90512 0.6033,-1.13182 0.6423,-2.30473 0.6423,-19.2819 l 0,-18.07677 -0.9552,-1.62385 c -1.0564,-1.79574 -2.5677,-3.06893 -4.351,-3.6656 -0.8144,-0.2724 -6.5132,-0.39185 -18.7045,-0.39185 -19.3232,0 -18.9263,-0.04 -21.2573,2.16947 -2.5054,2.37519 -2.4401,1.79942 -2.4486,21.60707 l -0.01,17.75093 0.8783,1.76118 c 1.0298,2.06493 2.775,3.51025 4.9636,4.11069 1.1721,0.32155 5.9045,0.41203 18.7955,0.35935 16.9275,-0.0692 17.2531,-0.0834 18.6073,-0.8136 z"
       id="path3094"
       inkscape:connector-curvature="0" />
    <path
       style="fill:none;stroke:#000000;stroke-width:0.99874997;stroke-miterlimit:4;stroke-opacity:1;stroke-dasharray:none"
       d="m 529.34701,-706.99983 c 1.8687,-0.99869 3.7313,-3.20678 4.2337,-5.01893 0.288,-1.03889 0.3726,-6.36986 0.2992,-18.83708 -0.1012,-17.17397 -0.1119,-17.40563 -0.8627,-18.80818 -0.8599,-1.60619 -2.4997,-3.11048 -4.139,-3.79688 -0.8818,-0.36927 -4.7568,-0.46433 -18.9292,-0.46433 -17.3663,0 -17.8583,0.018 -19.3066,0.71893 -1.8812,0.90999 -3.7016,3.01951 -4.2202,4.89067 -0.288,1.03937 -0.3726,6.41269 -0.2991,19.00923 0.091,15.57687 0.1669,17.67778 0.6734,18.60041 1.1425,2.08114 3.3075,3.74453 5.6314,4.32669 0.5685,0.14244 8.7867,0.23272 18.2627,0.20064 17.0734,-0.0578 17.2418,-0.0652 18.6564,-0.82116 z"
       id="path3092"
       inkscape:connector-curvature="0" />
    <path
       style="fill:none;stroke:#000000;stroke-width:0.99874997;stroke-miterlimit:4;stroke-opacity:1;stroke-dasharray:none"
       d="m 461.35391,-706.8903 c 1.5587,-0.77349 3.1254,-2.27076 3.9485,-3.7733 0.5349,-0.97655 0.6029,-2.8014 0.6953,-18.64281 0.073,-12.59654 -0.011,-17.96986 -0.2991,-19.00923 -0.5169,-1.86487 -2.4827,-4.15191 -4.2636,-4.96013 -1.2993,-0.58979 -2.6519,-0.63487 -19.2406,-0.64197 -14.2048,-0.01 -18.0691,0.087 -18.9518,0.45684 -1.6394,0.6864 -3.2792,2.19069 -4.139,3.79688 -0.7498,1.40069 -0.7617,1.65225 -0.8701,18.46386 -0.075,11.61126 0.012,17.6057 0.2731,18.80664 0.6132,2.8226 3.0716,5.2708 6.0392,6.01422 0.5686,0.14243 8.7868,0.23271 18.2627,0.20063 16.1591,-0.0548 17.3107,-0.0989 18.5454,-0.71163 z"
       id="path3090"
       inkscape:connector-curvature="0" />
    <path
       style="fill:none;stroke:#000000;stroke-width:0.99874997;stroke-miterlimit:4;stroke-opacity:1;stroke-dasharray:none"
       d="m 392.46081,-706.55229 c 2.27,-0.68265 3.7822,-1.95019 4.8277,-4.04667 l 0.897,-1.79883 0,-17.67591 c 0,-19.48058 0.042,-19.06639 -2.1711,-21.39727 -2.3743,-2.50075 -1.8282,-2.43827 -21.3926,-2.44667 -12.8942,-0.01 -17.9088,0.10446 -18.9518,0.41585 -0.8171,0.24401 -2.0318,1.03555 -2.8655,1.86743 -2.541,2.53538 -2.5605,2.7143 -2.4444,22.38203 0.094,15.97182 0.1458,17.24548 0.7436,18.36703 1.2579,2.35988 3.1879,3.92146 5.5601,4.49851 0.5685,0.13831 8.4907,0.26733 17.6049,0.28673 13.3766,0.0284 16.8836,-0.0587 18.1921,-0.45222 z"
       id="path3088"
       inkscape:connector-curvature="0" />
    <path
       style="fill:none;stroke:#000000;stroke-width:0.99874997;stroke-miterlimit:4;stroke-opacity:1;stroke-dasharray:none"
       d="m 324.64151,-706.57148 c 2.1611,-0.64428 4.0226,-2.18024 4.9419,-4.07787 0.7023,-1.44986 0.7199,-1.92601 0.7125,-19.36839 -0.01,-19.77848 0.039,-19.32636 -2.269,-21.63269 -2.3067,-2.30489 -1.8706,-2.25891 -21.5179,-2.26731 l -17.7643,-0.01 -1.8221,0.90726 c -2.2295,1.11024 -3.6533,2.9705 -4.1674,5.44521 -0.2545,1.22484 -0.3459,7.30932 -0.2777,18.48199 0.093,15.17802 0.1569,16.77825 0.723,18.0333 1.0723,2.37702 3.0885,4.06429 5.5812,4.67068 0.5685,0.13831 8.4872,0.26733 17.5971,0.28673 13.6558,0.029 16.8617,-0.0537 18.2627,-0.47136 z"
       id="path3086"
       inkscape:connector-curvature="0" />
    <path
       style="fill:none;stroke:#000000;stroke-width:0.99874997;stroke-miterlimit:4;stroke-opacity:1;stroke-dasharray:none"
       d="m 256.87751,-706.60417 c 2.1734,-0.64494 4.5295,-2.8164 5.2411,-4.83037 0.3799,-1.07526 0.4751,-4.86198 0.4751,-18.90488 l 0,-17.56029 -1.0703,-1.89376 c -0.7444,-1.31699 -1.5756,-2.20836 -2.7293,-2.92671 l -1.6589,-1.03292 -17.9455,-0.097 c -19.8508,-0.10776 -19.6248,-0.12926 -21.9007,2.08297 -2.4668,2.39789 -2.4035,1.82687 -2.4119,21.74981 -0.01,17.44239 0.01,17.91854 0.7125,19.3684 0.8942,1.84581 2.7602,3.42462 4.7931,4.05537 2.4274,0.75313 33.9521,0.74431 36.4948,-0.0102 z"
       id="path3084"
       inkscape:connector-curvature="0" />
    <path
       style="fill:none;stroke:#000000;stroke-width:0.99874997;stroke-miterlimit:4;stroke-opacity:1;stroke-dasharray:none"
       d="m 733.74191,-639.7002 c 0.7898,-0.5224 1.8638,-1.5957 2.3866,-2.3851 l 0.9505,-1.43528 0,-18.82 0,-18.81999 -1.0172,-1.46666 c -0.5629,-0.81175 -1.7938,-1.91183 -2.7566,-2.46365 l -1.7395,-0.99698 -18.008,-0.003 c -17.6142,-0.003 -18.0419,0.0127 -19.557,0.72433 -1.6955,0.79639 -3.1149,2.27461 -3.8366,3.99577 -0.3697,0.88134 -0.4647,4.77237 -0.4647,19.03456 0,14.26219 0.095,18.15323 0.4647,19.03471 0.7019,1.67378 2.1263,3.19163 3.7569,4.00347 1.4433,0.71856 1.7239,0.72752 19.9244,0.63826 l 18.4605,-0.0906 1.436,-0.94981 z"
       id="path3082"
       inkscape:connector-curvature="0" />
    <path
       style="fill:none;stroke:#000000;stroke-width:0.99874997;stroke-miterlimit:4;stroke-opacity:1;stroke-dasharray:none"
       d="m 665.12591,-639.29778 c 0.8181,-0.39577 1.957,-1.28669 2.5307,-1.97984 1.9968,-2.41226 2.0572,-3.03045 2.0572,-21.05869 0,-18.02822 -0.06,-18.6464 -2.0572,-21.05864 -0.5737,-0.69316 -1.7126,-1.58409 -2.5307,-1.97984 -1.4509,-0.70184 -1.9328,-0.71956 -19.5705,-0.71956 l -18.083,0 -1.865,1.11904 c -1.4386,0.86321 -2.085,1.54131 -2.8275,2.96604 l -0.9626,1.84699 0,17.82597 0,17.826 0.9626,1.84699 c 0.7425,1.42472 1.3889,2.10283 2.8275,2.96603 l 1.865,1.11905 18.083,0 c 17.6377,0 18.1196,-0.0177 19.5705,-0.71957 z"
       id="path3080"
       inkscape:connector-curvature="0" />
    <path
       style="fill:none;stroke:#000000;stroke-width:0.99874997;stroke-miterlimit:4;stroke-opacity:1;stroke-dasharray:none"
       d="m 596.93251,-639.11297 c 1.6251,-0.67832 3.0341,-2.01159 3.9832,-3.76926 0.735,-1.36107 0.7437,-1.58997 0.7437,-19.45405 0,-17.98116 0,-18.08428 -0.7602,-19.49682 -0.8598,-1.60618 -2.4996,-3.11047 -4.1389,-3.79693 -0.8817,-0.36921 -4.7484,-0.46432 -18.8768,-0.46432 -19.5821,0 -19.1587,-0.0428 -21.4921,2.16946 -2.5062,2.37594 -2.441,1.79957 -2.441,21.58858 0,16.47074 0.045,17.83047 0.6322,19.10975 0.7503,1.63435 2.154,3.09359 3.8256,3.97703 1.1366,0.60069 2.3413,0.64181 19.2279,0.65606 15.5312,0.0131 18.192,-0.0585 19.2964,-0.51953 z"
       id="path3078"
       inkscape:connector-curvature="0" />
    <path
       style="fill:none;stroke:#000000;stroke-width:0.99874997;stroke-miterlimit:4;stroke-opacity:1;stroke-dasharray:none"
       d="m 529.31711,-639.22766 c 1.7206,-0.78094 3.6983,-3.02886 4.2326,-4.81094 0.2806,-0.93556 0.399,-6.46163 0.3966,-18.50979 l 0,-17.17603 -0.8145,-1.72159 c -0.448,-0.94687 -1.2606,-2.13948 -1.8057,-2.65021 -2.1557,-2.01963 -1.9317,-1.9988 -21.3964,-1.99055 -16.5886,0.007 -17.9413,0.0522 -19.2406,0.64187 -1.7206,0.78095 -3.6984,3.02886 -4.2327,4.81094 -0.2799,0.93389 -0.3998,6.4195 -0.3998,18.29765 0,11.87817 0.1199,17.36379 0.3999,18.29768 0.5013,1.67182 2.3822,3.89709 4.0288,4.7664 1.1943,0.63051 2.1576,0.66393 19.3473,0.6712 16.8479,0.007 18.1864,-0.0359 19.4879,-0.62665 z"
       id="path3076"
       inkscape:connector-curvature="0" />
    <path
       style="fill:none;stroke:#000000;stroke-width:0.99874997;stroke-miterlimit:4;stroke-opacity:1;stroke-dasharray:none"
       d="m 461.53921,-639.24195 c 1.7514,-0.89283 3.7114,-3.12426 4.159,-4.73496 0.4795,-1.72541 0.5015,-34.91434 0.024,-36.63083 -0.4641,-1.66939 -2.5884,-4.066 -4.2875,-4.83718 -1.2993,-0.58971 -2.6519,-0.63483 -19.2406,-0.64186 -19.4661,-0.008 -19.2562,-0.0278 -21.3844,1.99054 -0.5385,0.51073 -1.3138,1.54838 -1.7229,2.3059 -0.7349,1.36107 -0.7437,1.58996 -0.7437,19.45403 0,17.86409 0.01,18.09299 0.7437,19.45406 0.4091,0.75751 1.1844,1.79483 1.7229,2.30518 2.1103,1.99977 1.7966,1.97068 21.4092,1.98535 17.1271,0.0128 18.0824,-0.0194 19.3199,-0.65023 z"
       id="path3074"
       inkscape:connector-curvature="0" />
    <path
       style="fill:none;stroke:#000000;stroke-width:0.99874997;stroke-miterlimit:4;stroke-opacity:1;stroke-dasharray:none"
       d="m 393.63811,-639.23196 c 1.7208,-0.87722 3.1331,-2.3236 3.9,-3.99428 0.5873,-1.27928 0.6323,-2.63901 0.6323,-19.10974 0,-19.61425 0.046,-19.17747 -2.2615,-21.48316 -2.3075,-2.30577 -1.8616,-2.25896 -21.5965,-2.26732 -14.2049,-0.006 -18.0692,0.0871 -18.9519,0.45674 -1.6393,0.68646 -3.2791,2.19074 -4.139,3.79692 -0.7561,1.41253 -0.7602,1.51566 -0.7602,19.49682 0,17.98117 0,18.08429 0.7602,19.49682 0.8389,1.56696 2.4738,3.08888 4.0639,3.78302 0.8078,0.35261 4.9728,0.4542 19.0517,0.46474 17.0351,0.0128 18.088,-0.0222 19.301,-0.64056 z"
       id="path3072"
       inkscape:connector-curvature="0" />
    <path
       style="fill:none;stroke:#000000;stroke-width:0.99874997;stroke-miterlimit:4;stroke-opacity:1;stroke-dasharray:none"
       d="m 326.51341,-639.69697 c 1.4385,-0.8632 2.085,-1.5413 2.8275,-2.96603 l 0.9626,-1.84699 0,-17.82599 0,-17.82598 -0.9626,-1.84699 c -0.7425,-1.42473 -1.389,-2.10283 -2.8275,-2.96604 l -1.865,-1.11904 -18.1376,0 -18.1376,0 -1.5186,0.80096 c -1.9742,1.04116 -3.5983,3.1949 -4.0713,5.39894 -0.5133,2.39173 -0.5133,32.72458 0,35.1163 0.473,2.20406 2.0971,4.3578 4.0713,5.39896 l 1.5186,0.80094 18.1376,0 18.1376,0 1.865,-1.11904 z"
       id="path3070"
       inkscape:connector-curvature="0" />
    <path
       style="fill:none;stroke:#000000;stroke-width:0.99874997;stroke-miterlimit:4;stroke-opacity:1;stroke-dasharray:none"
       d="m 258.16961,-639.29339 c 1.6391,-0.7929 3.0362,-2.27355 3.8733,-4.10501 0.4819,-1.05445 0.5508,-3.4221 0.5508,-18.93758 0,-15.51547 -0.069,-17.88312 -0.5508,-18.93757 -0.8371,-1.83146 -2.2342,-3.31211 -3.8733,-4.10501 -1.4402,-0.69666 -1.9541,-0.71538 -19.5468,-0.71223 l -18.0678,0.003 -1.8046,1.03416 c -1.3289,0.76156 -2.0774,1.5095 -2.8395,2.8374 l -1.0349,1.80325 0,17.97449 c 0,13.27481 0.1054,18.22631 0.4123,18.93759 0.7473,1.73177 2.3145,3.46037 3.8062,4.19821 1.4314,0.70796 1.8637,0.72401 19.5315,0.72427 17.5896,2.5e-4 18.1069,-0.0187 19.5468,-0.7152 z"
       id="path3068"
       inkscape:connector-curvature="0" />
    <path
       style="fill:none;stroke:#000000;stroke-width:0.99874997;stroke-miterlimit:4;stroke-opacity:1;stroke-dasharray:none"
       d="m 733.16311,-571.7087 c 1.4258,-0.74194 2.1044,-1.38791 2.9683,-2.82541 l 1.1199,-1.86356 0,-18.12394 0,-18.12393 -0.8016,-1.51751 c -1.0419,-1.97264 -3.1973,-3.59553 -5.403,-4.06821 -2.3935,-0.51294 -32.7492,-0.51294 -35.1428,0 -2.2056,0.47268 -4.361,2.09557 -5.403,4.06821 l -0.8015,1.51751 0,18.12393 0,18.12394 1.1199,1.86356 c 0.8638,1.4375 1.5424,2.08347 2.9682,2.82541 l 1.8484,0.96183 17.8394,0 17.8394,0 1.8484,-0.96183 z"
       id="path3066"
       inkscape:connector-curvature="0" />
    <path
       style="fill:none;stroke:#000000;stroke-width:0.99874997;stroke-miterlimit:4;stroke-opacity:1;stroke-dasharray:none"
       d="m 665.12761,-571.5857 c 2.1665,-1.00793 3.6953,-2.96325 4.2168,-5.39332 0.233,-1.08554 0.3694,-7.66776 0.3694,-17.82466 0,-17.84725 -0.073,-18.5547 -2.1684,-20.93918 -0.6078,-0.69172 -1.8029,-1.58047 -2.6557,-1.97497 -1.4931,-0.6907 -2.1686,-0.72106 -18.2192,-0.81894 -11.1811,-0.0683 -17.2701,0.0231 -18.4959,0.27743 -2.4766,0.51374 -4.3383,1.93641 -5.4493,4.16428 l -0.908,1.82073 0.01,17.75093 c 0.01,19.63251 -0.038,19.19674 2.269,21.50165 2.3069,2.30514 1.8717,2.25932 21.4994,2.26397 l 17.7458,0.004 1.7885,-0.83211 z"
       id="path3064"
       inkscape:connector-curvature="0" />
    <path
       style="fill:none;stroke:#000000;stroke-width:0.99874997;stroke-miterlimit:4;stroke-opacity:1;stroke-dasharray:none"
       d="m 598.09001,-571.96262 c 0.8171,-0.57398 1.9545,-1.80135 2.5275,-2.72747 l 1.0419,-1.68382 0,-18.10391 c 0,-17.00362 -0.039,-18.17712 -0.6423,-19.30899 -0.8991,-1.6867 -2.2244,-3.03552 -3.8372,-3.90513 -1.3501,-0.72802 -1.7223,-0.74532 -18.2245,-0.84751 -10.9581,-0.0679 -17.4411,0.0231 -18.5484,0.26044 -2.4733,0.53003 -4.507,2.06498 -5.5759,4.20841 l -0.8958,1.79627 0,17.67593 c 0,19.48056 -0.042,19.06638 2.171,21.39726 2.4052,2.53311 1.704,2.45833 22.1785,2.36533 l 18.3195,-0.0833 1.4857,-1.04359 z"
       id="path3062"
       inkscape:connector-curvature="0" />
    <path
       style="fill:none;stroke:#000000;stroke-width:0.99874997;stroke-miterlimit:4;stroke-opacity:1;stroke-dasharray:none"
       d="m 528.87821,-571.21118 c 1.6393,-0.68644 3.2791,-2.19074 4.139,-3.79692 0.7508,-1.40256 0.7615,-1.63421 0.8627,-18.80817 0.073,-12.46723 -0.011,-17.7982 -0.2992,-18.8371 -0.5024,-1.81214 -2.365,-4.02022 -4.2337,-5.01891 -1.4212,-0.75951 -1.5057,-0.76285 -19.3456,-0.76285 -17.7463,0 -17.9315,0.007 -19.3199,0.74979 -1.8646,0.9973 -3.8075,3.19664 -4.2589,4.82104 -0.5293,1.90489 -0.5019,34.88135 0.03,36.65707 0.5343,1.78207 2.5121,4.02998 4.2327,4.81094 1.2993,0.58971 2.6519,0.63482 19.2406,0.64185 14.2048,0.006 18.0691,-0.0872 18.9518,-0.45674 z"
       id="path3060"
       inkscape:connector-curvature="0" />
    <path
       style="fill:none;stroke:#000000;stroke-width:0.99874997;stroke-miterlimit:4;stroke-opacity:1;stroke-dasharray:none"
       d="m 461.43501,-571.39629 c 1.7206,-0.78096 3.6984,-3.02887 4.2327,-4.81094 0.5324,-1.77572 0.5598,-34.75218 0.03,-36.65707 -0.4514,-1.6244 -2.3943,-3.82374 -4.2589,-4.82104 -1.3884,-0.7427 -1.5736,-0.74989 -19.3199,-0.74989 -17.8399,0 -17.9243,0.003 -19.3455,0.76284 -2.0881,1.1159 -3.811,3.29356 -4.2673,5.39369 -0.2609,1.20095 -0.3479,7.19537 -0.273,18.80664 0.1084,16.81161 0.1202,17.06316 0.8701,18.46386 0.8388,1.56696 2.4737,3.08889 4.0638,3.78304 0.8083,0.35282 4.9418,0.45254 18.9519,0.45715 16.6784,0.006 18.0148,-0.038 19.3156,-0.62838 z"
       id="path3058"
       inkscape:connector-curvature="0" />
    <path
       style="fill:none;stroke:#000000;stroke-width:0.99874997;stroke-miterlimit:4;stroke-opacity:1;stroke-dasharray:none"
       d="m 393.53371,-571.40129 c 0.7581,-0.35145 1.8744,-1.16149 2.4807,-1.8001 2.2132,-2.33088 2.1711,-1.91669 2.1711,-21.39726 l 0,-17.67592 -0.8866,-1.77793 c -1.0957,-2.19708 -3.0717,-3.70945 -5.5064,-4.21452 -1.2147,-0.25197 -7.395,-0.34234 -18.6451,-0.27263 -15.642,0.097 -16.9132,0.14952 -18.0342,0.74615 -1.688,0.89837 -3.0379,2.2227 -3.9081,3.83428 -0.735,1.36107 -0.7438,1.58998 -0.7438,19.45406 l 0,18.07677 0.9553,1.62385 c 0.9753,1.65793 2.5294,3.06736 4.0514,3.67433 0.5193,0.20712 7.8366,0.34501 18.7693,0.35372 16.747,0.0134 18.0082,-0.0275 19.2964,-0.6248 z"
       id="path3056"
       inkscape:connector-curvature="0" />
    <path
       style="fill:none;stroke:#000000;stroke-width:0.99874997;stroke-miterlimit:4;stroke-opacity:1;stroke-dasharray:none"
       d="m 325.65161,-571.39429 c 1.7545,-0.80424 3.1996,-2.24824 4.0045,-4.00142 0.5871,-1.27886 0.6328,-2.65136 0.6398,-19.20723 l 0.01,-17.83001 -0.8689,-1.71337 c -1.0573,-2.08486 -3.0346,-3.59234 -5.3679,-4.09237 -2.363,-0.50639 -32.7432,-0.5004 -35.1105,0.007 -2.2855,0.48977 -4.3945,2.12648 -5.4967,4.26553 l -0.8802,1.70851 -0.1017,16.66594 c -0.068,11.17988 0.023,17.26704 0.2776,18.49193 0.5141,2.47472 1.9379,4.33498 4.1674,5.44516 l 1.8221,0.90732 17.7644,-0.008 c 16.4916,-0.007 17.863,-0.0528 19.1426,-0.63932 z"
       id="path3054"
       inkscape:connector-curvature="0" />
    <path
       style="fill:none;stroke:#000000;stroke-width:0.99874997;stroke-miterlimit:4;stroke-opacity:1;stroke-dasharray:none"
       d="m 258.22591,-571.64251 c 2.3851,-1.18771 3.7851,-3.2101 4.2391,-6.12383 0.1984,-1.27357 0.2953,-8.8713 0.2338,-18.33323 l -0.1051,-16.15831 -0.8803,-1.70843 c -1.1021,-2.13901 -3.2112,-3.77571 -5.4966,-4.26547 -2.3935,-0.51293 -32.7492,-0.51293 -35.1428,0 -2.2056,0.47269 -4.361,2.09557 -5.403,4.06821 l -0.8015,1.51751 0,18.12393 0,18.12394 1.1199,1.86357 c 0.8638,1.43749 1.5424,2.08347 2.9682,2.8254 l 1.8484,0.96183 17.8111,0 17.8111,0 1.7977,-0.89512 z"
       id="path3052"
       inkscape:connector-curvature="0" />
    <path
       style="fill:none;stroke:#000000;stroke-width:0.99874997;stroke-miterlimit:4;stroke-opacity:1;stroke-dasharray:none"
       d="m 732.59951,-503.56335 c 1.6719,-0.76638 3.1194,-2.17758 3.9973,-3.89711 0.6181,-1.21076 0.6545,-2.27778 0.6545,-19.21137 0,-14.26439 -0.095,-18.15586 -0.4647,-19.03736 -0.6869,-1.6381 -2.1924,-3.27668 -3.7997,-4.13586 -1.4137,-0.75561 -1.5169,-0.75964 -19.5116,-0.75964 -17.9947,0 -18.0979,0.004 -19.5115,0.75964 -1.6074,0.85918 -3.1128,2.49776 -3.7997,4.13586 -0.3697,0.8815 -0.4647,4.77297 -0.4647,19.03736 0,16.93359 0.036,18.00061 0.6545,19.21137 0.8779,1.71953 2.3254,3.13073 3.9973,3.89711 1.2803,0.58683 2.641,0.6318 19.1241,0.6318 16.4832,0 17.8439,-0.045 19.1242,-0.6318 z"
       id="path3050"
       inkscape:connector-curvature="0" />
    <path
       style="fill:none;stroke:#000000;stroke-width:0.99874997;stroke-miterlimit:4;stroke-opacity:1;stroke-dasharray:none"
       d="m 665.15531,-503.8024 c 2.1951,-1.09301 3.7121,-3.06861 4.215,-5.48894 0.2484,-1.19599 0.3402,-7.46309 0.2728,-18.63105 -0.094,-15.64637 -0.1467,-16.91354 -0.7439,-18.03399 -0.8991,-1.68671 -2.2244,-3.03551 -3.8372,-3.90513 -1.3622,-0.73447 -1.5905,-0.74318 -19.4959,-0.74318 l -18.1175,0 -1.6851,1.04113 c -0.9268,0.5726 -2.1551,1.70912 -2.7295,2.52564 l -1.0444,1.48457 -0.1046,17.96133 c -0.072,12.46034 0.013,18.36338 0.2787,19.27398 0.4933,1.6894 2.5462,3.9586 4.3054,4.7592 1.2757,0.58057 2.7014,0.62784 19.1427,0.63483 l 17.7643,0.007 1.7792,-0.88597 z"
       id="path3048"
       inkscape:connector-curvature="0" />
    <path
       style="fill:none;stroke:#000000;stroke-width:0.99874997;stroke-miterlimit:4;stroke-opacity:1;stroke-dasharray:none"
       d="m 597.31611,-503.82379 c 2.2087,-1.0998 3.6444,-2.95706 4.1758,-5.40196 0.2663,-1.22502 0.3531,-7.057 0.2775,-18.65388 -0.1022,-15.6787 -0.1554,-16.95689 -0.7523,-18.07679 -0.8991,-1.68672 -2.2244,-3.03551 -3.8372,-3.90514 -1.3498,-0.72785 -1.7268,-0.74544 -18.2627,-0.85304 -11.6056,-0.0756 -17.442,0.011 -18.6679,0.27725 -2.4468,0.53104 -4.3054,1.96565 -5.4061,4.1727 l -0.9079,1.82072 0,17.4066 c 0,11.37711 0.1305,17.86946 0.3732,18.74283 0.4613,1.66006 3.2447,4.52356 4.8442,4.98364 0.6681,0.19213 8.5748,0.34539 18.7474,0.36333 l 17.592,0.031 1.8221,-0.90732 z"
       id="path3046"
       inkscape:connector-curvature="0" />
    <path
       style="fill:none;stroke:#000000;stroke-width:0.99874997;stroke-miterlimit:4;stroke-opacity:1;stroke-dasharray:none"
       d="m 529.12561,-503.63404 c 1.9289,-0.87385 2.9569,-1.81676 3.91,-3.58644 0.7275,-1.35082 0.7437,-1.71385 0.84,-18.89838 0.1133,-20.21053 0.1631,-19.79803 -2.6955,-22.36617 -1.0679,-0.95948 -2.2531,-1.65814 -3.2294,-1.90378 -2.0826,-0.52402 -33.9259,-0.5358 -35.8674,-0.0134 -2.0276,0.54567 -3.8831,1.95008 -4.932,3.73291 l -0.9258,1.5737 -0.098,17.84779 -0.098,17.84778 0.8327,1.81743 c 0.8811,1.92313 2.5796,3.53158 4.442,4.20652 0.807,0.29247 6.0769,0.41248 18.6972,0.42588 16.9735,0.0179 17.6265,-0.006 19.1242,-0.68381 z"
       id="path3044"
       inkscape:connector-curvature="0" />
    <path
       style="fill:none;stroke:#000000;stroke-width:0.99874997;stroke-miterlimit:4;stroke-opacity:1;stroke-dasharray:none"
       d="m 460.68661,-503.33737 c 1.865,-0.55343 4.406,-3.09255 4.9598,-4.95603 0.3076,-1.03486 0.4212,-6.10278 0.4212,-18.78391 l 0,-17.36665 -0.8783,-1.76119 c -1.0194,-2.04413 -2.6772,-3.43198 -4.8971,-4.09954 -2.1051,-0.63307 -33.7125,-0.69047 -36.1954,-0.0658 -2.0729,0.52157 -4.8946,3.24494 -5.5066,5.31472 -0.6297,2.12968 -0.5649,34.93197 0.072,36.71684 0.7357,2.06014 2.2132,3.70816 4.1198,4.59523 l 1.7632,0.82041 17.3613,0.003 c 12.6847,0.003 17.7433,-0.11001 18.7796,-0.41748 z"
       id="path3042"
       inkscape:connector-curvature="0" />
    <path
       style="fill:none;stroke:#000000;stroke-width:0.99874997;stroke-miterlimit:4;stroke-opacity:1;stroke-dasharray:none"
       d="m 394.44231,-504.13124 c 0.8163,-0.57343 1.9537,-1.70995 2.5276,-2.52568 l 1.0433,-1.48309 0.095,-18.11162 0.095,-18.11166 -0.908,-1.85461 c -1.0986,-2.24368 -2.9474,-3.68197 -5.424,-4.21949 -1.2259,-0.26609 -7.0623,-0.3528 -18.6679,-0.27725 -15.6905,0.10209 -16.9697,0.15525 -18.0904,0.75175 -1.688,0.89836 -3.0378,2.22269 -3.9081,3.83428 -0.7284,1.34883 -0.746,1.72549 -0.8537,18.24895 -0.076,11.59688 0.011,17.42886 0.2775,18.65388 0.533,2.45241 1.9663,4.30174 4.1933,5.41067 l 1.8395,0.91598 18.1482,-0.0948 18.1482,-0.0948 1.4842,-1.04257 z"
       id="path3040"
       inkscape:connector-curvature="0" />
    <path
       style="fill:none;stroke:#000000;stroke-width:0.99874997;stroke-miterlimit:4;stroke-opacity:1;stroke-dasharray:none"
       d="m 325.65161,-503.55891 c 1.7593,-0.8006 3.8122,-3.06981 4.3055,-4.75921 0.266,-0.91059 0.3513,-6.81363 0.2787,-19.27398 l -0.1046,-17.96132 -1.0444,-1.48458 c -0.5744,-0.81651 -1.8027,-1.95304 -2.7295,-2.52565 l -1.6851,-1.04111 -18.1176,0 c -17.9053,0 -18.1336,0.009 -19.4958,0.74316 -1.761,0.94958 -3.0725,2.3355 -3.8583,4.0773 -0.5648,1.25216 -0.6311,2.8476 -0.7299,17.56031 -0.06,8.90066 -0.012,16.97975 0.1063,17.95353 0.3297,2.71597 1.994,5.21149 4.2628,6.39212 l 1.8484,0.96183 17.7926,-0.007 c 16.4686,-0.007 17.8952,-0.0543 19.1709,-0.63483 z"
       id="path3038"
       inkscape:connector-curvature="0" />
    <path
       style="fill:none;stroke:#000000;stroke-width:0.99874997;stroke-miterlimit:4;stroke-opacity:1;stroke-dasharray:none"
       d="m 257.76961,-503.56391 c 1.6799,-0.77006 3.0976,-2.15764 4.0834,-3.99689 0.7301,-1.36202 0.7407,-1.63286 0.7407,-18.94208 0,-13.90053 -0.097,-17.83555 -0.4672,-18.88104 -0.6087,-1.7207 -2.2144,-3.52298 -3.9797,-4.46689 -1.4006,-0.74891 -1.5441,-0.75444 -19.5014,-0.75444 -17.9947,0 -18.0979,0.004 -19.5115,0.75964 -1.6074,0.85917 -3.1128,2.49775 -3.7998,4.13585 -0.3694,0.88102 -0.4646,4.74481 -0.4646,18.86256 0,19.56733 -0.043,19.14427 2.1711,21.47593 2.3777,2.50427 1.8009,2.43916 21.6048,2.43916 16.4832,0 17.8439,-0.045 19.1242,-0.6318 z"
       id="path3036"
       inkscape:connector-curvature="0" />
    <path
       style="fill:none;stroke:#000000;stroke-width:0.99874997;stroke-miterlimit:4;stroke-opacity:1;stroke-dasharray:none"
       d="m 731.78681,-435.48527 c 1.7834,-0.5339 4.033,-2.51015 4.8146,-4.22948 0.5901,-1.29833 0.6353,-2.64995 0.6423,-19.22609 0.01,-19.4514 0.028,-19.24175 -1.992,-21.3683 -0.5111,-0.53814 -1.5496,-1.31286 -2.3077,-1.7216 -1.362,-0.73444 -1.5911,-0.74318 -19.4687,-0.74318 -17.8775,0 -18.1066,0.009 -19.4687,0.74318 -0.758,0.40874 -1.7965,1.18346 -2.3076,1.7216 -2.0198,2.12655 -2.0003,1.9169 -1.992,21.3683 0.01,19.93387 -0.064,19.30087 2.4915,21.72895 2.2089,2.09865 2.1677,2.09453 21.0646,2.11113 12.0887,0.0107 17.585,-0.10347 18.5237,-0.38451 z"
       id="path3034"
       inkscape:connector-curvature="0" />
    <path
       style="fill:none;stroke:#000000;stroke-width:0.99874997;stroke-miterlimit:4;stroke-opacity:1;stroke-dasharray:none"
       d="m 663.96651,-435.45498 c 1.6256,-0.45109 3.8266,-2.39251 4.8247,-4.25568 0.7431,-1.38734 0.7503,-1.57244 0.7503,-19.30539 0,-17.82642 0,-17.91085 -0.7634,-19.331 -0.9995,-1.8673 -3.2092,-3.72852 -5.0227,-4.23047 -1.0397,-0.28778 -6.3747,-0.37238 -18.8513,-0.29898 -17.1869,0.10112 -17.4187,0.11177 -18.8223,0.86204 -1.6074,0.85918 -3.1129,2.49776 -3.7998,4.13586 -0.3699,0.88205 -0.4631,4.74345 -0.4571,18.93759 0.01,16.63511 0.05,17.92404 0.6482,19.23916 0.7275,1.60071 2.8435,3.5238 4.5601,4.14461 1.5312,0.5537 34.9726,0.64629 36.9333,0.10226 z"
       id="path3032"
       inkscape:connector-curvature="0" />
    <path
       style="fill:none;stroke:#000000;stroke-width:0.99874997;stroke-miterlimit:4;stroke-opacity:1;stroke-dasharray:none"
       d="m 597.72101,-436.1831 c 1.7841,-1.04811 3.1896,-2.90228 3.7357,-4.92832 0.5229,-1.94007 0.5111,-33.75937 -0.013,-35.84037 -0.2454,-0.97398 -0.9444,-2.15913 -1.8992,-3.22035 -2.5408,-2.82374 -2.1664,-2.77639 -21.8082,-2.759 -13.3661,0.0117 -17.3626,0.11538 -18.3743,0.47616 -2.0617,0.73515 -3.7109,2.21157 -4.5987,4.11675 l -0.821,1.76188 0,17.3482 c 0,12.01193 0.1176,17.75167 0.3899,18.65996 0.5692,1.89827 2.2293,3.72885 4.2341,4.66894 l 1.7473,0.81934 17.9181,-0.0891 17.9181,-0.0891 1.5748,-0.92511 z"
       id="path3030"
       inkscape:connector-curvature="0" />
    <path
       style="fill:none;stroke:#000000;stroke-width:0.99874997;stroke-miterlimit:4;stroke-opacity:1;stroke-dasharray:none"
       d="m 530.00531,-436.30003 c 1.0449,-0.64572 2.0831,-1.68322 2.7292,-2.72756 l 1.0429,-1.68553 0,-18.30293 0,-18.30292 -1.0429,-1.68552 c -0.6464,-1.0447 -1.6841,-2.08165 -2.7296,-2.72756 l -1.6868,-1.04205 -18.3167,0 -18.3167,0 -1.6868,1.04205 c -1.0451,0.64571 -2.0834,1.68307 -2.7296,2.72718 l -1.0428,1.68511 -0.098,17.75986 c -0.086,15.74095 -0.034,17.92772 0.4644,19.2368 0.7949,2.08905 2.0883,3.48612 4.0985,4.42712 l 1.737,0.81304 17.9455,-0.0876 17.9455,-0.0876 1.6864,-1.04204 z"
       id="path3028"
       inkscape:connector-curvature="0" />
    <path
       style="fill:none;stroke:#000000;stroke-width:0.99874997;stroke-miterlimit:4;stroke-opacity:1;stroke-dasharray:none"
       d="m 461.42991,-435.9008 c 2.0087,-0.93469 3.3028,-2.331 4.0985,-4.4223 0.4981,-1.30908 0.5509,-3.49585 0.4645,-19.2368 l -0.098,-17.75986 -1.0429,-1.68511 c -0.6459,-1.04369 -1.6847,-2.08175 -2.7291,-2.72718 l -1.6863,-1.04205 -17.5618,-0.0982 c -19.8196,-0.11081 -19.7553,-0.11766 -22.2447,2.36988 -2.4649,2.46306 -2.4613,2.43155 -2.4443,21.63374 0.016,18.34243 0.027,18.45832 1.83,20.82118 0.4907,0.64287 1.7023,1.57223 2.6924,2.06522 l 1.8002,0.89641 17.592,-0.003 17.592,-0.003 1.737,-0.80826 z"
       id="path3026"
       inkscape:connector-curvature="0" />
    <path
       style="fill:none;stroke:#000000;stroke-width:0.99874997;stroke-miterlimit:4;stroke-opacity:1;stroke-dasharray:none"
       d="m 393.55811,-435.9058 c 1.9773,-0.91998 3.7906,-2.90305 4.288,-4.68935 0.4958,-1.78062 0.447,-35.19848 -0.054,-36.86895 -0.5235,-1.74594 -2.104,-3.60654 -3.8611,-4.54547 -1.4173,-0.75729 -1.6014,-0.7657 -18.9655,-0.8629 -20.2257,-0.11325 -19.8129,-0.16293 -22.383,2.69348 -0.9602,1.06714 -1.6594,2.25143 -1.9052,3.227 -0.5244,2.081 -0.5362,33.90029 -0.013,35.84036 0.7263,2.69471 2.8314,4.90948 5.4015,5.68276 0.5185,0.15601 8.7733,0.29545 18.344,0.30988 l 17.4012,0.0262 1.7473,-0.81304 z"
       id="path3024"
       inkscape:connector-curvature="0" />
    <path
       style="fill:none;stroke:#000000;stroke-width:0.99874997;stroke-miterlimit:4;stroke-opacity:1;stroke-dasharray:none"
       d="m 324.83901,-435.48565 c 1.7834,-0.5339 4.033,-2.51016 4.8145,-4.22948 0.5902,-1.29834 0.6353,-2.64996 0.6424,-19.22609 0.01,-14.19414 -0.087,-18.05553 -0.4571,-18.93758 -0.687,-1.6381 -2.1924,-3.27668 -3.7998,-4.13586 -1.4017,-0.74928 -1.6535,-0.76112 -18.4778,-0.86945 -11.62,-0.0749 -17.6189,0.012 -18.8208,0.27287 -2.1017,0.45596 -4.281,2.17753 -5.3977,4.26399 -0.7601,1.42015 -0.7634,1.50457 -0.7634,19.33101 0,17.69861 0.01,17.92045 0.7451,19.2819 1.0053,1.85822 2.8458,3.56518 4.4665,4.14247 1.7817,0.63461 34.9653,0.72975 37.0481,0.10622 z"
       id="path3022"
       inkscape:connector-curvature="0" />
    <path
       style="fill:none;stroke:#000000;stroke-width:0.99874997;stroke-miterlimit:4;stroke-opacity:1;stroke-dasharray:none"
       d="m 257.01871,-435.45536 c 1.6256,-0.4511 3.8266,-2.39251 4.8246,-4.25568 0.7426,-1.38634 0.7504,-1.58181 0.7504,-18.96107 0,-13.90052 -0.097,-17.83555 -0.4672,-18.88104 -0.6087,-1.7207 -2.2144,-3.52297 -3.9797,-4.46689 -1.4006,-0.74889 -1.5441,-0.75444 -19.5014,-0.75444 -17.8775,0 -18.1066,0.009 -19.4687,0.74318 -0.7581,0.40874 -1.7965,1.18346 -2.3076,1.7216 -2.0198,2.12654 -2.0003,1.91689 -1.992,21.3683 0.01,16.63512 0.051,17.92404 0.6482,19.23917 0.7275,1.60071 2.8434,3.52379 4.5601,4.14461 1.5312,0.5537 34.9726,0.64629 36.9333,0.10226 z"
       id="path3020"
       inkscape:connector-curvature="0" />
    <path
       style="fill:none;stroke:#000000;stroke-width:0.99874997;stroke-miterlimit:4;stroke-opacity:1;stroke-dasharray:none"
       d="m 732.94401,-368.17063 c 0.7581,-0.40875 1.7966,-1.18346 2.3077,-1.7216 2.0198,-2.12655 2.0003,-1.91689 1.992,-21.3683 -0.01,-16.57613 -0.052,-17.92776 -0.6423,-19.22609 -0.7816,-1.71932 -3.0312,-3.69558 -4.8146,-4.22948 -0.935,-0.27993 -6.4443,-0.39963 -18.3943,-0.39963 -18.8449,0 -18.9667,0.0124 -21.2357,2.16664 -2.508,2.38108 -2.4414,1.79187 -2.4498,21.68856 -0.01,15.35194 0.067,18.0075 0.5275,19.10973 0.8972,2.14612 2.8218,3.80281 5.3205,4.57988 0.475,0.1477 8.7718,0.24043 18.4372,0.20603 17.2882,-0.0616 17.5959,-0.0747 18.9518,-0.80574 z"
       id="path3018"
       inkscape:connector-curvature="0" />
    <path
       style="fill:none;stroke:#000000;stroke-width:0.99874997;stroke-miterlimit:4;stroke-opacity:1;stroke-dasharray:none"
       d="m 663.90471,-367.65491 c 1.7284,-0.5174 3.9078,-2.39557 4.8734,-4.1996 0.7601,-1.42015 0.7634,-1.50458 0.7634,-19.33099 0,-17.73295 -0.01,-17.91806 -0.7503,-19.30539 -0.9981,-1.86318 -3.1991,-3.80459 -4.8247,-4.25568 -1.9222,-0.53336 -34.9089,-0.50119 -36.7025,0.0358 -0.7439,0.22271 -2.0294,1.00029 -2.8567,1.72793 -2.684,2.36084 -2.6255,1.84006 -2.5151,22.37059 l 0.097,18.13349 1.0337,1.46026 c 1.2351,1.74474 2.3273,2.59893 4.1549,3.24948 1.8029,0.64178 34.6233,0.7438 36.7265,0.11415 z"
       id="path3016"
       inkscape:connector-curvature="0" />
    <path
       style="fill:none;stroke:#000000;stroke-width:0.99874997;stroke-miterlimit:4;stroke-opacity:1;stroke-dasharray:none"
       d="m 596.42531,-367.80276 c 2.091,-0.71192 4.4777,-3.30271 5.0181,-5.447 0.5244,-2.081 0.5362,-33.90029 0.013,-35.84037 -0.5461,-2.02604 -1.9516,-3.8802 -3.7358,-4.92831 l -1.5748,-0.92512 -17.8268,-0.0979 c -17.652,-0.097 -17.8439,-0.0906 -19.5698,0.65138 -2.0199,0.8683 -3.8406,2.82114 -4.4144,4.73466 -0.2807,0.93635 -0.3989,6.50317 -0.3965,18.68196 l 0,17.3482 0.821,1.76189 c 0.8878,1.90519 2.537,3.3816 4.5987,4.11675 1.0116,0.36078 5.0081,0.46435 18.3743,0.47616 14.7365,0.0131 17.3021,-0.0601 18.6893,-0.53235 z"
       id="path3014"
       inkscape:connector-curvature="0" />
    <path
       style="fill:none;stroke:#000000;stroke-width:0.99874997;stroke-miterlimit:4;stroke-opacity:1;stroke-dasharray:none"
       d="m 530.00541,-368.4695 c 1.0448,-0.64564 2.083,-1.68328 2.7291,-2.72756 l 1.0429,-1.68552 0,-18.30292 0,-18.30294 -1.0429,-1.6855 c -0.6461,-1.04436 -1.6843,-2.08187 -2.7292,-2.72757 l -1.6864,-1.04205 -17.7732,-0.0975 c -15.7528,-0.0864 -17.9412,-0.0338 -19.2513,0.46407 -2.0929,0.7951 -3.4902,2.08823 -4.4256,4.09548 l -0.8089,1.73567 0,17.57879 0,17.57876 0.8971,1.79883 c 0.4934,0.98937 1.4234,2.20003 2.0667,2.69034 2.4085,1.8356 2.3625,1.83188 21.5288,1.74873 l 17.7733,-0.0771 1.6863,-1.04205 z"
       id="path3012"
       inkscape:connector-curvature="0" />
    <path
       style="fill:none;stroke:#000000;stroke-width:0.99874997;stroke-miterlimit:4;stroke-opacity:1;stroke-dasharray:none"
       d="m 462.12331,-368.4695 c 1.0445,-0.64543 2.0833,-1.68348 2.7292,-2.72719 l 1.0428,-1.68509 0.098,-17.75987 c 0.087,-15.84873 0.036,-17.92119 -0.4731,-19.25939 -0.7963,-2.09284 -2.2518,-3.62296 -4.2724,-4.49154 -1.7012,-0.73126 -1.9602,-0.73984 -19.5847,-0.64605 l -17.8608,0.0951 -1.6864,1.04205 c -1.0444,0.64542 -2.0833,1.68345 -2.7292,2.72708 l -1.0429,1.68503 -0.1024,17.41562 c -0.074,12.51749 0.011,17.82436 0.3004,18.86892 0.4564,1.64658 1.4907,3.17921 2.885,4.27517 2.0899,1.64262 2.3413,1.66131 21.2373,1.57933 l 17.7734,-0.0771 1.6863,-1.04205 z"
       id="path3010"
       inkscape:connector-curvature="0" />
    <path
       style="fill:none;stroke:#000000;stroke-width:0.99874997;stroke-miterlimit:4;stroke-opacity:1;stroke-dasharray:none"
       d="m 393.93111,-368.19219 c 1.7572,-0.93892 3.3376,-2.79952 3.8611,-4.54546 0.5058,-1.68683 0.5494,-35.08862 0.048,-36.89148 -0.5029,-1.80915 -2.4651,-3.89945 -4.4691,-4.7609 -1.726,-0.7419 -1.9178,-0.74831 -19.5698,-0.65138 -19.8676,0.10904 -18.741,-0.0269 -21.26,2.56494 -2.2002,2.26372 -2.2524,2.75587 -2.2524,21.20099 0,11.08754 0.1271,16.98911 0.3883,18.02572 0.514,2.03954 2.9348,4.73639 4.8752,5.43113 1.238,0.44323 4.1107,0.51149 19.2016,0.45619 17.6141,-0.0646 17.7564,-0.0707 19.177,-0.82975 z"
       id="path3008"
       inkscape:connector-curvature="0" />
    <path
       style="fill:none;stroke:#000000;stroke-width:0.99874997;stroke-miterlimit:4;stroke-opacity:1;stroke-dasharray:none"
       d="m 326.03901,-368.18719 c 1.6074,-0.85917 3.1128,-2.49776 3.7998,-4.13586 0.3699,-0.88204 0.4631,-4.74345 0.4571,-18.93758 -0.01,-16.57613 -0.052,-17.92776 -0.6424,-19.22608 -0.7815,-1.71932 -3.0311,-3.69559 -4.8145,-4.22948 -1.7771,-0.53205 -34.7784,-0.55942 -36.6847,-0.0303 -1.6256,0.45109 -3.8266,2.3925 -4.8247,4.25568 -0.7431,1.38733 -0.7503,1.57244 -0.7503,19.30538 0,17.8736 0,17.90711 0.7702,19.34426 0.8937,1.6706 2.9562,3.51095 4.618,4.12065 0.8727,0.32021 5.54,0.40887 18.9046,0.35915 17.5771,-0.0654 17.7593,-0.0733 19.1669,-0.82565 z"
       id="path3006"
       inkscape:connector-curvature="0" />
    <path
       style="fill:none;stroke:#000000;stroke-width:0.99874997;stroke-miterlimit:4;stroke-opacity:1;stroke-dasharray:none"
       d="m 258.14681,-368.18219 c 1.7653,-0.94391 3.371,-2.74619 3.9797,-4.46689 0.3698,-1.04549 0.4672,-4.98051 0.4672,-18.88104 0,-17.37926 -0.01,-17.57473 -0.7504,-18.96106 -0.998,-1.86319 -3.199,-3.8046 -4.8246,-4.25569 -1.9064,-0.52894 -34.9077,-0.50158 -36.6847,0.0303 -1.7834,0.53389 -4.0331,2.51016 -4.8146,4.22948 -0.5902,1.29833 -0.6353,2.64996 -0.6423,19.22609 -0.01,15.35193 0.067,18.0075 0.5275,19.10973 0.8972,2.14611 2.8218,3.80281 5.3205,4.57987 0.475,0.14771 8.7718,0.24043 18.4372,0.20604 17.366,-0.0619 17.5902,-0.0715 18.9845,-0.817 z"
       id="path3004"
       inkscape:connector-curvature="0" />
    <path
       sodipodi:type="arc"
       style="fill:none;stroke:#000000;stroke-width:1.40273416;stroke-miterlimit:4;stroke-opacity:1;stroke-dasharray:none"
       id="path3063"
       sodipodi:cx="832.3031"
       sodipodi:cy="196.02498"
       sodipodi:rx="7.7124615"
       sodipodi:ry="7.7124615"
       d="m 840.01556,196.02498 a 7.7124615,7.7124615 0 1 1 -15.42492,0 7.7124615,7.7124615 0 1 1 15.42492,0 z"
       transform="matrix(0.71200236,0,0,0.71200236,-320.014,-971.57186)" />
    <path
       sodipodi:type="arc"
       style="fill:none;stroke:#000000;stroke-width:1.40273416;stroke-miterlimit:4;stroke-opacity:1;stroke-dasharray:none"
       id="path3063-2"
       sodipodi:cx="832.3031"
       sodipodi:cy="196.02498"
       sodipodi:rx="7.7124615"
       sodipodi:ry="7.7124615"
       d="m 840.01556,196.02498 a 7.7124615,7.7124615 0 1 1 -15.42492,0 7.7124615,7.7124615 0 1 1 15.42492,0 z"
       transform="matrix(0.71200236,0,0,0.71200236,-320.014,-564.5699)" />
    <path
       sodipodi:type="arc"
       style="fill:none;stroke:#000000;stroke-width:1.40273416;stroke-miterlimit:4;stroke-opacity:1;stroke-dasharray:none"
       id="path3063-2-1"
       sodipodi:cx="832.3031"
       sodipodi:cy="196.02498"
       sodipodi:rx="7.7124615"
       sodipodi:ry="7.7124615"
       d="m 840.01556,196.02498 a 7.7124615,7.7124615 0 1 1 -15.42492,0 7.7124615,7.7124615 0 1 1 15.42492,0 z"
       transform="matrix(0.71200236,0,0,0.71200236,87.274974,-564.5699)" />
    <path
       sodipodi:type="arc"
       style="fill:none;stroke:#000000;stroke-width:1.40273416;stroke-miterlimit:4;stroke-opacity:1;stroke-dasharray:none"
       id="path3063-2-1-9"
       sodipodi:cx="832.3031"
       sodipodi:cy="196.02498"
       sodipodi:rx="7.7124615"
       sodipodi:ry="7.7124615"
       d="m 840.01556,196.02498 a 7.7124615,7.7124615 0 1 1 -15.42492,0 7.7124615,7.7124615 0 1 1 15.42492,0 z"
       transform="matrix(0.71200236,0,0,0.71200236,87.274974,-971.57186)" />
    <rect
       style="fill:none;stroke:#000000;stroke-width:0.99921262;stroke-miterlimit:4;stroke-opacity:1;stroke-dasharray:none"
       id="rect3057"
       width="810"
       height="810"
       x="71.365746"
       y="-1033.728" />
    <path
       sodipodi:type="arc"
       style="fill:none;stroke:#000000;stroke-width:1.40273416;stroke-miterlimit:4;stroke-opacity:1;stroke-dasharray:none"
       id="path3063-0"
       sodipodi:cx="832.3031"
       sodipodi:cy="196.02498"
       sodipodi:rx="7.7124615"
       sodipodi:ry="7.7124615"
       d="m 840.01556,196.02498 a 7.7124615,7.7124615 0 1 1 -15.42492,0 7.7124615,7.7124615 0 1 1 15.42492,0 z"
       transform="matrix(0.71200236,0,0,0.71200236,-251.64457,-902.92189)" />
    <path
       sodipodi:type="arc"
       style="fill:none;stroke:#000000;stroke-width:1.40273416;stroke-miterlimit:4;stroke-opacity:1;stroke-dasharray:none"
       id="path3063-0-4"
       sodipodi:cx="832.3031"
       sodipodi:cy="196.02498"
       sodipodi:rx="7.7124615"
       sodipodi:ry="7.7124615"
       d="m 840.01556,196.02498 a 7.7124615,7.7124615 0 1 1 -15.42492,0 7.7124615,7.7124615 0 1 1 15.42492,0 z"
       transform="matrix(0.71200236,0,0,0.71200236,19.099524,-902.92161)" />
    <path
       sodipodi:type="arc"
       style="fill:none;stroke:#000000;stroke-width:1.40273416;stroke-miterlimit:4;stroke-opacity:1;stroke-dasharray:none"
       id="path3063-0-4-8"
       sodipodi:cx="832.3031"
       sodipodi:cy="196.02498"
       sodipodi:rx="7.7124615"
       sodipodi:ry="7.7124615"
       d="m 840.01556,196.02498 a 7.7124615,7.7124615 0 1 1 -15.42492,0 7.7124615,7.7124615 0 1 1 15.42492,0 z"
       transform="matrix(0.71200236,0,0,0.71200236,19.099524,-631.98264)" />
    <path
       sodipodi:type="arc"
       style="fill:none;stroke:#000000;stroke-width:1.40273416;stroke-miterlimit:4;stroke-opacity:1;stroke-dasharray:none"
       id="path3063-0-4-8-7"
       sodipodi:cx="832.3031"
       sodipodi:cy="196.02498"
       sodipodi:rx="7.7124615"
       sodipodi:ry="7.7124615"
       d="m 840.01556,196.02498 a 7.7124615,7.7124615 0 1 1 -15.42492,0 7.7124615,7.7124615 0 1 1 15.42492,0 z"
       transform="matrix(0.71200236,0,0,0.71200236,-251.64457,-631.98264)" />
  </g>
</svg>
